<svg width="14" height="15" viewBox="0 0 14 15" fill="none" xmlns="http://www.w3.org/2000/svg">
<path fill-rule="evenodd" clip-rule="evenodd" d="M13.7071 2.4276C14.0976 2.05335 14.0976 1.44657 13.7071 1.07232C13.3166 0.698063 12.6834 0.698063 12.2929 1.07232L7 6.14467L1.70711 1.07232C1.31658 0.698063 0.683417 0.698063 0.292893 1.07232C-0.0976311 1.44657 -0.0976311 2.05335 0.292893 2.4276L5.58579 7.49996L0.292893 12.5723C-0.0976311 12.9466 -0.0976311 13.5534 0.292893 13.9276C0.683417 14.3019 1.31658 14.3019 1.70711 13.9276L7 8.85525L12.2929 13.9276C12.6834 14.3019 13.3166 14.3019 13.7071 13.9276C14.0976 13.5534 14.0976 12.9466 13.7071 12.5723L8.41421 7.49996L13.7071 2.4276ZM8.41421 7.49996L7 6.14467L5.58579 7.49996L7 8.85525L8.41421 7.49996Z" fill="#00065B"/>
<path d="M8.41421 7.49996L7 6.14467L5.58579 7.49996L7 8.85525L8.41421 7.49996Z" fill="#00065B"/>
</svg>
